<svg width="636" height="636" viewBox="0 0 636 636" fill="none" xmlns="http://www.w3.org/2000/svg">
<rect x="8" y="8" width="620" height="620" fill="white" stroke="black" stroke-width="16"/>
<circle cx="400.846" cy="303.522" r="57.9945" fill="white"/>
<path d="M401.45 248.361C416.076 248.361 429.825 254.056 440.17 264.4C450.511 274.741 456.208 288.494 456.208 303.12C456.208 317.746 450.514 331.495 440.17 341.84C429.828 352.181 416.076 357.878 401.45 357.878C386.824 357.878 373.075 352.184 362.73 341.84C352.389 331.498 346.692 317.746 346.692 303.12C346.692 288.494 352.386 274.745 362.73 264.4C373.072 254.059 386.824 248.361 401.45 248.361ZM401.45 244.518C369.087 244.518 342.852 270.754 342.852 303.117C342.852 335.479 369.087 361.715 401.45 361.715C433.812 361.715 460.048 335.479 460.048 303.117C460.048 270.754 433.812 244.518 401.45 244.518Z" fill="black"/>
<path d="M447.074 265.246L499.481 354.096L443.801 267.257L447.074 265.246Z" fill="black"/>
<path d="M443.019 267.341L402.436 374.228L439.407 266.038L443.019 267.341Z" fill="black"/>
<path d="M438.853 265.474L372.674 285.9L437.62 261.832L438.853 265.474Z" fill="black"/>
<path d="M437.709 261.051L364.914 212.06L439.785 257.816L437.709 261.051Z" fill="black"/>
<path d="M440.46 257.403L433.382 170L444.284 257.009L440.46 257.403Z" fill="black"/>
<path d="M445.021 257.275L495.782 210.158L447.714 260.02L445.021 257.275Z" fill="black"/>
<path d="M447.97 260.766L553.25 275.574L447.506 264.58L447.97 260.766Z" fill="black"/>
<path d="M240.281 280.414C263.234 278.06 286.075 278.739 308.346 282.31C312.253 282.938 314.998 286.707 314.537 290.755C314.063 294.909 310.399 297.772 306.38 297.18C283.263 293.759 259.561 293.449 235.778 296.401" fill="black"/>
<path d="M240.281 280.414C263.234 278.06 286.075 278.739 308.346 282.31C312.253 282.938 314.998 286.707 314.537 290.755C314.063 294.909 310.399 297.772 306.38 297.18C283.263 293.759 259.561 293.449 235.778 296.401" stroke="black" stroke-width="5"/>
<path d="M236.941 309.906C259.895 307.552 282.736 308.231 305.007 311.802C308.914 312.43 311.659 316.199 311.198 320.248C310.724 324.401 307.06 327.265 303.04 326.672C279.924 323.252 256.221 322.941 232.439 325.894" fill="black"/>
<path d="M236.941 309.906C259.895 307.552 282.736 308.231 305.007 311.802C308.914 312.43 311.659 316.199 311.198 320.248C310.724 324.401 307.06 327.265 303.04 326.672C279.924 323.252 256.221 322.941 232.439 325.894" stroke="black" stroke-width="5"/>
<path d="M234.474 341.385C257.428 339.031 280.189 337.673 302.46 341.244C306.367 341.871 309.111 345.641 308.65 349.689C308.176 353.843 304.513 356.706 300.493 356.117C300.493 356.117 296.032 355.537 295.734 355.521C218.589 351.847 137.87 369.901 102.168 433.236C98.6095 439.875 95.4646 446.834 92.7712 454.065C91.9737 456.205 88.8351 455.843 88.5501 453.575C87.647 446.398 86.6413 434.747 86.6445 418.513C86.6445 418.372 86.6445 417.95 86.6445 417.95C86.6445 387.323 94.1579 358.707 107.189 334.4C120.093 310.332 139.014 290.556 161.983 276.413C185.343 262.03 211.614 252.675 238.551 249.005C256.457 246.565 275.186 245.274 292.56 245.207C339.773 245.024 388.2 246.126 433.995 258.504C438.078 259.609 441.764 261.95 441.86 266.731C441.969 272.221 437.934 275.334 432.957 275.023C427.705 274.696 421.821 273.217 416.21 272.093C384.027 265.646 327.318 264.845 292.445 264.256C275.497 263.968 258.67 265.521 241.789 267.615" fill="black"/>
<path d="M234.474 341.385C257.428 339.031 280.189 337.673 302.46 341.244C306.367 341.871 309.111 345.641 308.65 349.689C308.176 353.843 304.513 356.706 300.493 356.117C300.493 356.117 296.032 355.537 295.734 355.521C218.589 351.847 137.87 369.901 102.168 433.236C98.6095 439.875 95.4646 446.834 92.7712 454.065C91.9737 456.205 88.8351 455.843 88.5501 453.575C87.647 446.398 86.6413 434.747 86.6445 418.513C86.6445 418.372 86.6445 417.95 86.6445 417.95C86.6445 387.323 94.1579 358.707 107.189 334.4C120.093 310.332 139.014 290.556 161.983 276.413C185.343 262.03 211.614 252.675 238.551 249.005C256.457 246.565 275.186 245.274 292.56 245.207C339.773 245.024 388.2 246.126 433.995 258.504C438.078 259.609 441.764 261.95 441.86 266.731C441.969 272.221 437.934 275.334 432.957 275.023C427.705 274.696 421.821 273.217 416.21 272.093C384.027 265.646 327.318 264.845 292.445 264.256C275.497 263.968 258.67 265.521 241.789 267.615" stroke="black" stroke-width="5"/>
<path d="M241.01 274.476C264.617 272.109 288.105 272.791 311.01 276.381C315.029 277.012 317.851 280.801 317.377 284.868C316.89 289.045 313.12 291.921 308.989 291.325C285.216 287.888 260.841 287.575 236.379 290.54" fill="white"/>
<path d="M241.01 274.476C264.617 272.109 288.105 272.791 311.01 276.381C315.029 277.012 317.851 280.801 317.377 284.868C316.89 289.045 313.12 291.921 308.989 291.325C285.216 287.888 260.841 287.575 236.379 290.54" stroke="black" stroke-width="5"/>
<path d="M237.574 304.116C261.181 301.749 284.669 302.432 307.574 306.022C311.593 306.653 314.415 310.441 313.941 314.509C313.454 318.685 309.685 321.561 305.553 320.965C281.78 317.529 257.405 317.215 232.943 320.181" fill="white"/>
<path d="M237.574 304.116C261.181 301.749 284.669 302.432 307.574 306.022C311.593 306.653 314.415 310.441 313.941 314.509C313.454 318.685 309.685 321.561 305.553 320.965C281.78 317.529 257.405 317.215 232.943 320.181" stroke="black" stroke-width="5"/>
<path d="M235.038 335.755C258.645 333.388 282.053 332.024 304.958 335.614C308.977 336.245 311.799 340.034 311.325 344.101C310.838 348.277 307.069 351.153 302.934 350.561C302.934 350.561 298.348 349.978 298.037 349.962C218.699 346.273 140.839 372.608 104.121 436.26C99.0964 445.423 94.8721 455.194 91.551 465.449C91.551 465.449 82.9936 442.822 83 413.268C83 413.127 83 412.701 83 412.701C83 381.921 90.7247 353.165 104.131 328.735C117.403 304.549 136.859 284.673 160.481 270.46C184.504 256.007 211.525 246.604 239.227 242.914C257.642 240.461 276.903 239.164 294.774 239.097C343.332 238.911 393.133 240.019 440.227 252.461C444.426 253.569 448.218 255.923 448.317 260.727C448.429 266.245 444.276 269.393 439.161 269.057C433.515 268.689 427.708 267.241 421.937 266.111C388.838 259.632 330.515 258.828 294.655 258.232C277.223 257.944 259.92 259.504 242.558 261.611" fill="white"/>
<path d="M235.038 335.755C258.645 333.388 282.053 332.024 304.958 335.614C308.977 336.245 311.799 340.034 311.325 344.101C310.838 348.277 307.069 351.153 302.934 350.561C302.934 350.561 298.348 349.978 298.037 349.962C218.699 346.273 140.839 372.608 104.121 436.26C99.0964 445.423 94.8721 455.194 91.551 465.449C91.551 465.449 82.9936 442.822 83 413.268C83 413.127 83 412.701 83 412.701C83 381.921 90.7247 353.165 104.131 328.735C117.403 304.549 136.859 284.673 160.481 270.46C184.504 256.007 211.525 246.604 239.227 242.914C257.642 240.461 276.903 239.164 294.774 239.097C343.332 238.911 393.133 240.019 440.227 252.461C444.426 253.569 448.218 255.923 448.317 260.727C448.429 266.245 444.276 269.393 439.161 269.057C433.515 268.689 427.708 267.241 421.937 266.111C388.838 259.632 330.515 258.828 294.655 258.232C277.223 257.944 259.92 259.504 242.558 261.611" stroke="black" stroke-width="5"/>
<path d="M124.841 300.391C125.402 357.859 131.708 387.849 143.759 390.369" stroke="black" stroke-width="5" stroke-miterlimit="10"/>
<path d="M111.562 317.311C112.122 374.779 118.428 401.127 130.48 403.647" stroke="black" stroke-width="5" stroke-miterlimit="10"/>
<path d="M96.8309 344.661C97.3914 402.129 103.374 416.182 115.425 418.703" stroke="black" stroke-width="5" stroke-miterlimit="10"/>
</svg>
