<svg width="476" height="357" viewBox="0 0 476 357" fill="none" xmlns="http://www.w3.org/2000/svg">
<path d="M141.163 44.6727C195.451 33.1988 252.023 40.698 302.611 66.4821C306.225 68.3248 310.325 65.3823 310.325 60.9349C310.325 58.5874 309.132 56.4296 307.241 55.4166C255.49 27.687 197.114 19.3613 141.163 31.1857" fill="white"/>
<path d="M141.163 44.6727C195.451 33.1988 252.023 40.698 302.611 66.4821C306.225 68.3248 310.325 65.3823 310.325 60.9349C310.325 58.5874 309.132 56.4296 307.241 55.4166C255.49 27.687 197.114 19.3613 141.163 31.1857" stroke="black" stroke-width="5" stroke-miterlimit="10"/>
<path d="M141.163 67.6331C195.451 56.1592 252.023 63.6584 302.611 89.4425C306.225 91.2851 310.325 88.3427 310.325 83.8953C310.325 81.5478 309.132 79.39 307.241 78.377C255.49 50.6473 197.114 42.3217 141.163 54.1461" fill="white"/>
<path d="M141.163 67.6331C195.451 56.1592 252.023 63.6584 302.611 89.4425C306.225 91.2851 310.325 88.3427 310.325 83.8953C310.325 81.5478 309.132 79.39 307.241 78.377C255.49 50.6473 197.114 42.3217 141.163 54.1461" stroke="black" stroke-width="5" stroke-miterlimit="10"/>
<path d="M141.163 90.5938C195.451 79.1199 252.023 86.6191 302.611 112.403C306.225 114.246 310.325 111.303 310.325 106.856C310.325 104.508 309.132 102.351 307.241 101.338C255.49 73.608 197.114 65.2824 141.163 77.1068" fill="white"/>
<path d="M141.163 90.5938C195.451 79.1199 252.023 86.6191 302.611 112.403C306.225 114.246 310.325 111.303 310.325 106.856C310.325 104.508 309.132 102.351 307.241 101.338C255.49 73.608 197.114 65.2824 141.163 77.1068" stroke="black" stroke-width="5" stroke-miterlimit="10"/>
<path d="M141.163 21.5607C195.709 9.83273 252.602 17.274 303.45 43.1932C307.065 45.0359 311.165 42.0934 311.165 37.646C311.165 35.2985 309.972 33.1407 308.081 32.1277C214.772 -17.8712 74.4739 -6.17219 23.6389 88.0662H23.6324C10.5474 111.931 3 140.02 3 170.085C3 170.085 3 170.499 3 170.638C2.99679 199.503 11.3546 221.608 11.3546 221.608C14.5993 211.587 18.7252 202.043 23.6356 193.094H23.6421C60.5624 124.652 144.678 99.7459 223.708 110.397L223.689 110.541C227.207 111.02 230.323 108.01 230.323 104.039V103.791C230.323 100.505 228.159 97.6846 225.249 97.2698C197.365 93.2886 168.966 94.1891 141.169 100.064" fill="white"/>
<path d="M141.163 21.5607C195.709 9.83273 252.602 17.274 303.45 43.1932C307.065 45.0359 311.165 42.0934 311.165 37.646C311.165 35.2985 309.972 33.1407 308.081 32.1277C214.772 -17.8712 74.4739 -6.17219 23.6389 88.0662H23.6324C10.5474 111.931 3 140.02 3 170.085C3 170.085 3 170.499 3 170.638C2.99679 199.503 11.3546 221.608 11.3546 221.608C14.5993 211.587 18.7252 202.043 23.6356 193.094H23.6421C60.5624 124.652 144.678 99.7459 223.708 110.397L223.689 110.541C227.207 111.02 230.323 108.01 230.323 104.039V103.791C230.323 100.505 228.159 97.6846 225.249 97.2698C197.365 93.2886 168.966 94.1891 141.169 100.064" stroke="black" stroke-width="5" stroke-miterlimit="10"/>
<path d="M43.8649 59.5164C44.4116 115.651 50.573 144.947 62.346 147.41Z" fill="white"/>
<path d="M43.8649 59.5164C44.4116 115.651 50.573 144.947 62.346 147.41" stroke="black" stroke-width="5" stroke-miterlimit="10"/>
<path d="M30.9006 76.0455C31.4473 132.18 37.6087 157.916 49.3817 160.379Z" fill="white"/>
<path d="M30.9006 76.0455C31.4473 132.18 37.6087 157.916 49.3817 160.379" stroke="black" stroke-width="5" stroke-miterlimit="10"/>
<path d="M16.511 102.759C17.0577 158.893 22.9007 172.622 34.6737 175.085Z" fill="white"/>
<path d="M16.511 102.759C17.0577 158.893 22.9007 172.622 34.6737 175.085" stroke="black" stroke-width="5" stroke-miterlimit="10"/>
<path d="M91.2211 85.7253C98.8669 85.7253 105.065 79.5272 105.065 71.8814C105.065 64.2356 98.8669 58.0375 91.2211 58.0375C83.5753 58.0375 77.3772 64.2356 77.3772 71.8814C77.3772 79.5272 83.5753 85.7253 91.2211 85.7253Z" fill="white" stroke="black" stroke-width="5" stroke-miterlimit="10"/>
<path d="M149.518 172.017C203.807 160.543 260.379 168.043 310.966 193.827C314.581 195.669 318.681 192.727 318.681 188.28C318.681 185.932 317.488 183.774 315.597 182.761C263.845 155.032 205.469 146.706 149.518 158.53" fill="white"/>
<path d="M149.518 172.017C203.807 160.543 260.379 168.043 310.966 193.827C314.581 195.669 318.681 192.727 318.681 188.28C318.681 185.932 317.488 183.774 315.597 182.761C263.845 155.032 205.469 146.706 149.518 158.53" stroke="black" stroke-width="5" stroke-miterlimit="10"/>
<path d="M149.518 194.978C203.807 183.504 260.379 191.003 310.966 216.787C314.581 218.63 318.681 215.687 318.681 211.24C318.681 208.892 317.488 206.735 315.597 205.722C263.845 177.992 205.469 169.666 149.518 181.491" fill="white"/>
<path d="M149.518 194.978C203.807 183.504 260.379 191.003 310.966 216.787C314.581 218.63 318.681 215.687 318.681 211.24C318.681 208.892 317.488 206.735 315.597 205.722C263.845 177.992 205.469 169.666 149.518 181.491" stroke="black" stroke-width="5" stroke-miterlimit="10"/>
<path d="M149.518 217.939C203.807 206.465 260.379 213.964 310.966 239.748C314.581 241.591 318.681 238.649 318.681 234.201C318.681 231.854 317.488 229.696 315.597 228.683C263.845 200.953 205.469 192.628 149.518 204.452" fill="white"/>
<path d="M149.518 217.939C203.807 206.465 260.379 213.964 310.966 239.748C314.581 241.591 318.681 238.649 318.681 234.201C318.681 231.854 317.488 229.696 315.597 228.683C263.845 200.953 205.469 192.628 149.518 204.452" stroke="black" stroke-width="5" stroke-miterlimit="10"/>
<path d="M149.576 148.722C176.202 143.419 204.421 142.149 232.038 145.87C235.556 146.349 238.672 143.339 238.672 139.368V139.12C238.672 135.833 236.508 133.013 233.598 132.598L233.553 132.56C154.091 121.391 69.146 146.179 31.9941 215.054H31.9877C18.8994 238.915 11.3552 267.008 11.3552 297.073C11.3552 297.073 11.3552 297.487 11.3552 297.626C11.352 326.491 19.7098 348.596 19.7098 348.596C22.9545 338.575 27.0804 329.031 31.9909 320.081H31.9973C56.0159 275.559 100.008 249.457 149.579 239.584C176.206 234.281 205.672 234.005 233.286 237.725L244.644 239.581C267.399 243.906 289.713 251.515 310.966 262.349C314.581 264.191 318.681 261.249 318.681 256.801C318.681 254.454 317.488 252.296 315.597 251.283C263.845 223.553 205.469 215.228 149.518 227.052" fill="white"/>
<path d="M149.576 148.722C176.202 143.419 204.421 142.149 232.038 145.87C235.556 146.349 238.672 143.339 238.672 139.368V139.12C238.672 135.833 236.508 133.013 233.598 132.598L233.553 132.56C154.091 121.391 69.146 146.179 31.9941 215.054H31.9877C18.8994 238.915 11.3552 267.008 11.3552 297.073C11.3552 297.073 11.3552 297.487 11.3552 297.626C11.352 326.491 19.7098 348.596 19.7098 348.596C22.9545 338.575 27.0804 329.031 31.9909 320.081H31.9973C56.0159 275.559 100.008 249.457 149.579 239.584C176.206 234.281 205.672 234.005 233.286 237.725L244.644 239.581C267.399 243.906 289.713 251.515 310.966 262.349C314.581 264.191 318.681 261.249 318.681 256.801C318.681 254.454 317.488 252.296 315.597 251.283C263.845 223.553 205.469 215.228 149.518 227.052" stroke="black" stroke-width="5" stroke-miterlimit="10"/>
<path d="M52.22 186.865C52.7667 243 58.9281 272.295 70.7011 274.759Z" fill="white"/>
<path d="M52.22 186.865C52.7667 243 58.9281 272.295 70.7011 274.759" stroke="black" stroke-width="5" stroke-miterlimit="10"/>
<path d="M39.252 203.391C39.7986 259.525 45.9601 285.261 57.733 287.724Z" fill="white"/>
<path d="M39.252 203.391C39.7986 259.525 45.9601 285.261 57.733 287.724" stroke="black" stroke-width="5" stroke-miterlimit="10"/>
<path d="M24.8635 230.107C25.4102 286.242 31.2533 299.97 43.0262 302.433Z" fill="white"/>
<path d="M24.8635 230.107C25.4102 286.242 31.2533 299.97 43.0262 302.433" stroke="black" stroke-width="5" stroke-miterlimit="10"/>
<path d="M99.5761 212.713C107.222 212.713 113.42 206.515 113.42 198.869C113.42 191.223 107.222 185.025 99.5761 185.025C91.9303 185.025 85.7322 191.223 85.7322 198.869C85.7322 206.515 91.9303 212.713 99.5761 212.713Z" fill="white" stroke="black" stroke-width="5" stroke-miterlimit="10"/>
<path d="M451.054 85.7253C458.7 85.7253 464.898 79.5272 464.898 71.8814C464.898 64.2356 458.7 58.0375 451.054 58.0375C443.409 58.0375 437.21 64.2356 437.21 71.8814C437.21 79.5272 443.409 85.7253 451.054 85.7253Z" fill="white" stroke="black" stroke-width="5" stroke-miterlimit="10"/>
<path d="M459.406 212.713C467.052 212.713 473.25 206.515 473.25 198.869C473.25 191.223 467.052 185.025 459.406 185.025C451.761 185.025 445.562 191.223 445.562 198.869C445.562 206.515 451.761 212.713 459.406 212.713Z" fill="white" stroke="black" stroke-width="5" stroke-miterlimit="10"/>
</svg>
