<svg width="474" height="303" viewBox="0 0 474 303" fill="none" xmlns="http://www.w3.org/2000/svg">
<circle cx="320.846" cy="133.522" r="57.9945" fill="white"/>
<path d="M321.45 78.3615C336.076 78.3615 349.825 84.0557 360.17 94.4002C370.511 104.741 376.208 118.494 376.208 133.12C376.208 147.746 370.514 161.495 360.17 171.84C349.828 182.181 336.076 187.878 321.45 187.878C306.824 187.878 293.075 182.184 282.73 171.84C272.389 161.498 266.692 147.746 266.692 133.12C266.692 118.494 272.386 104.745 282.73 94.4002C293.072 84.0589 306.824 78.3615 321.45 78.3615V78.3615ZM321.45 74.5183C289.087 74.5183 262.852 100.754 262.852 133.117C262.852 165.479 289.087 191.715 321.45 191.715C353.812 191.715 380.048 165.479 380.048 133.117C380.048 100.754 353.812 74.5183 321.45 74.5183V74.5183Z" fill="black"/>
<path d="M367.074 95.2457L419.481 184.096L363.801 97.257L367.074 95.2457Z" fill="black"/>
<path d="M363.019 97.341L322.436 204.228L359.407 96.0375L363.019 97.341Z" fill="black"/>
<path d="M358.853 95.4738L292.674 115.9L357.62 91.8324L358.853 95.4738Z" fill="black"/>
<path d="M357.709 91.0508L284.914 42.0602L359.785 87.8161L357.709 91.0508Z" fill="black"/>
<path d="M360.46 87.4028L353.382 0L364.284 87.0088L360.46 87.4028Z" fill="black"/>
<path d="M365.021 87.2749L415.782 40.1579L367.714 90.0196L365.021 87.2749Z" fill="black"/>
<path d="M367.97 90.7655L473.25 105.574L367.506 94.5798L367.97 90.7655Z" fill="black"/>
<path d="M160.281 110.414C183.234 108.06 206.075 108.739 228.346 112.31C232.253 112.938 234.998 116.707 234.537 120.755C234.063 124.909 230.399 127.772 226.38 127.18C203.263 123.759 179.561 123.449 155.778 126.401" fill="black"/>
<path d="M160.281 110.414C183.234 108.06 206.075 108.739 228.346 112.31C232.253 112.938 234.998 116.707 234.537 120.755C234.063 124.909 230.399 127.772 226.38 127.18C203.263 123.759 179.561 123.449 155.778 126.401" stroke="black" stroke-width="5"/>
<path d="M156.941 139.906C179.895 137.552 202.736 138.231 225.007 141.802C228.914 142.43 231.659 146.199 231.198 150.248C230.724 154.401 227.06 157.265 223.04 156.672C199.924 153.252 176.221 152.941 152.439 155.894" fill="black"/>
<path d="M156.941 139.906C179.895 137.552 202.736 138.231 225.007 141.802C228.914 142.43 231.659 146.199 231.198 150.248C230.724 154.401 227.06 157.265 223.04 156.672C199.924 153.252 176.221 152.941 152.439 155.894" stroke="black" stroke-width="5"/>
<path d="M154.474 171.385C177.428 169.031 200.189 167.673 222.46 171.244C226.367 171.871 229.111 175.641 228.65 179.689C228.176 183.843 224.513 186.706 220.493 186.117C220.493 186.117 216.032 185.537 215.734 185.521C138.589 181.847 57.8705 199.901 22.1676 263.236C18.6095 269.875 15.4646 276.834 12.7712 284.065C11.9737 286.205 8.83513 285.843 8.5501 283.575C7.64696 276.398 6.64134 264.747 6.64454 248.513C6.64454 248.372 6.64454 247.95 6.64454 247.95C6.64454 217.323 14.1579 188.707 27.1894 164.4C40.0927 140.332 59.0138 120.556 81.983 106.413C105.343 92.03 131.614 82.6751 158.551 79.0049C176.457 76.5645 195.186 75.2739 212.56 75.2066C259.773 75.0241 308.2 76.1258 353.995 88.5039C358.078 89.6088 361.764 91.9499 361.86 96.7314C361.969 102.221 357.934 105.334 352.957 105.023C347.705 104.696 341.821 103.217 336.21 102.093C304.027 95.6457 247.318 94.8451 212.445 94.2558C195.497 93.9676 178.67 95.5208 161.789 97.6153" fill="black"/>
<path d="M154.474 171.385C177.428 169.031 200.189 167.673 222.46 171.244C226.367 171.871 229.111 175.641 228.65 179.689C228.176 183.843 224.513 186.706 220.493 186.117C220.493 186.117 216.032 185.537 215.734 185.521C138.589 181.847 57.8705 199.901 22.1676 263.236C18.6095 269.875 15.4646 276.834 12.7712 284.065C11.9737 286.205 8.83513 285.843 8.5501 283.575C7.64696 276.398 6.64134 264.747 6.64454 248.513C6.64454 248.372 6.64454 247.95 6.64454 247.95C6.64454 217.323 14.1579 188.707 27.1894 164.4C40.0927 140.332 59.0138 120.556 81.983 106.413C105.343 92.03 131.614 82.6751 158.551 79.0049C176.457 76.5645 195.186 75.2739 212.56 75.2066C259.773 75.0241 308.2 76.1258 353.995 88.5039C358.078 89.6088 361.764 91.9499 361.86 96.7314C361.969 102.221 357.934 105.334 352.957 105.023C347.705 104.696 341.821 103.217 336.21 102.093C304.027 95.6457 247.318 94.8451 212.445 94.2558C195.497 93.9676 178.67 95.5208 161.789 97.6153" stroke="black" stroke-width="5"/>
<path d="M161.01 104.476C184.617 102.109 208.105 102.791 231.01 106.381C235.029 107.012 237.851 110.801 237.377 114.868C236.89 119.045 233.12 121.921 228.989 121.325C205.216 117.888 180.841 117.575 156.379 120.54" fill="white"/>
<path d="M161.01 104.476C184.617 102.109 208.105 102.791 231.01 106.381C235.029 107.012 237.851 110.801 237.377 114.868C236.89 119.045 233.12 121.921 228.989 121.325C205.216 117.888 180.841 117.575 156.379 120.54" stroke="black" stroke-width="5"/>
<path d="M157.574 134.116C181.181 131.749 204.669 132.432 227.574 136.022C231.593 136.653 234.415 140.441 233.941 144.509C233.454 148.685 229.685 151.561 225.553 150.965C201.78 147.529 177.405 147.215 152.943 150.181" fill="white"/>
<path d="M157.574 134.116C181.181 131.749 204.669 132.432 227.574 136.022C231.593 136.653 234.415 140.441 233.941 144.509C233.454 148.685 229.685 151.561 225.553 150.965C201.78 147.529 177.405 147.215 152.943 150.181" stroke="black" stroke-width="5"/>
<path d="M155.038 165.755C178.645 163.388 202.053 162.024 224.958 165.614C228.977 166.245 231.799 170.034 231.325 174.101C230.838 178.277 227.069 181.153 222.934 180.561C222.934 180.561 218.348 179.978 218.037 179.962C138.699 176.273 60.8394 202.608 24.1213 266.26C19.0964 275.423 14.8721 285.194 11.551 295.449C11.551 295.449 2.9936 272.822 3 243.268C3 243.127 3 242.701 3 242.701C3 211.921 10.7247 183.165 24.1309 158.735C37.4026 134.549 56.8586 114.673 80.4812 100.46C104.504 86.0065 131.525 76.6036 159.227 72.9142C177.642 70.461 196.903 69.1639 214.774 69.0967C263.332 68.9109 313.133 70.019 360.227 82.4612C364.426 83.5693 368.218 85.9233 368.317 90.7272C368.429 96.2453 364.276 99.3935 359.161 99.0572C353.515 98.6889 347.708 97.2413 341.937 96.1108C308.838 89.6319 250.515 88.828 214.655 88.2323C197.223 87.9441 179.92 89.5038 162.558 91.6111" fill="white"/>
<path d="M155.038 165.755C178.645 163.388 202.053 162.024 224.958 165.614C228.977 166.245 231.799 170.034 231.325 174.101C230.838 178.277 227.069 181.153 222.934 180.561C222.934 180.561 218.348 179.978 218.037 179.962C138.699 176.273 60.8394 202.608 24.1213 266.26C19.0964 275.423 14.8721 285.194 11.551 295.449C11.551 295.449 2.9936 272.822 3 243.268C3 243.127 3 242.701 3 242.701C3 211.921 10.7247 183.165 24.1309 158.735C37.4026 134.549 56.8586 114.673 80.4812 100.46C104.504 86.0065 131.525 76.6036 159.227 72.9142C177.642 70.461 196.903 69.1639 214.774 69.0967C263.332 68.9109 313.133 70.019 360.227 82.4612C364.426 83.5693 368.218 85.9233 368.317 90.7272C368.429 96.2453 364.276 99.3935 359.161 99.0572C353.515 98.6889 347.708 97.2413 341.937 96.1108C308.838 89.6319 250.515 88.828 214.655 88.2323C197.223 87.9441 179.92 89.5038 162.558 91.6111" stroke="black" stroke-width="5"/>
<path d="M44.8414 130.391C45.4019 187.859 51.7079 217.849 63.7593 220.369" stroke="black" stroke-width="5" stroke-miterlimit="10"/>
<path d="M31.5619 147.311C32.1223 204.779 38.4283 231.127 50.4798 233.647" stroke="black" stroke-width="5" stroke-miterlimit="10"/>
<path d="M16.8309 174.661C17.3914 232.129 23.3739 246.182 35.4254 248.703" stroke="black" stroke-width="5" stroke-miterlimit="10"/>
</svg>
