<svg width="636" height="636" viewBox="0 0 636 636" fill="none" xmlns="http://www.w3.org/2000/svg">
<rect x="8" y="8" width="620" height="620" fill="white" stroke="black" stroke-width="16"/>
<path d="M221.163 186.673C275.451 175.199 332.023 182.698 382.611 208.482C386.225 210.325 390.325 207.382 390.325 202.935C390.325 200.587 389.132 198.43 387.241 197.417C335.49 169.687 277.114 161.361 221.163 173.186" fill="white"/>
<path d="M221.163 186.673C275.451 175.199 332.023 182.698 382.611 208.482C386.225 210.325 390.325 207.382 390.325 202.935C390.325 200.587 389.132 198.43 387.241 197.417C335.49 169.687 277.114 161.361 221.163 173.186" stroke="black" stroke-width="5" stroke-miterlimit="10"/>
<path d="M221.163 209.633C275.451 198.159 332.023 205.658 382.611 231.443C386.225 233.285 390.325 230.343 390.325 225.895C390.325 223.548 389.132 221.39 387.241 220.377C335.49 192.647 277.114 184.322 221.163 196.146" fill="white"/>
<path d="M221.163 209.633C275.451 198.159 332.023 205.658 382.611 231.443C386.225 233.285 390.325 230.343 390.325 225.895C390.325 223.548 389.132 221.39 387.241 220.377C335.49 192.647 277.114 184.322 221.163 196.146" stroke="black" stroke-width="5" stroke-miterlimit="10"/>
<path d="M221.163 232.594C275.451 221.12 332.023 228.619 382.611 254.403C386.225 256.246 390.325 253.303 390.325 248.856C390.325 246.508 389.132 244.351 387.241 243.338C335.49 215.608 277.114 207.282 221.163 219.107" fill="white"/>
<path d="M221.163 232.594C275.451 221.12 332.023 228.619 382.611 254.403C386.225 256.246 390.325 253.303 390.325 248.856C390.325 246.508 389.132 244.351 387.241 243.338C335.49 215.608 277.114 207.282 221.163 219.107" stroke="black" stroke-width="5" stroke-miterlimit="10"/>
<path d="M221.163 163.561C275.709 151.833 332.602 159.274 383.45 185.193C387.065 187.036 391.165 184.093 391.165 179.646C391.165 177.298 389.972 175.141 388.081 174.128C294.772 124.129 154.474 135.828 103.639 230.066H103.632C90.5474 253.931 83 282.02 83 312.085C83 312.085 83 312.499 83 312.638C82.9968 341.503 91.3546 363.608 91.3546 363.608C94.5993 353.587 98.7252 344.043 103.636 335.094H103.642C140.562 266.652 224.678 241.746 303.708 252.397L303.689 252.541C307.207 253.02 310.323 250.01 310.323 246.039V245.791C310.323 242.505 308.159 239.685 305.249 239.27C277.365 235.289 248.966 236.189 221.169 242.064" fill="white"/>
<path d="M221.163 163.561C275.709 151.833 332.602 159.274 383.45 185.193C387.065 187.036 391.165 184.093 391.165 179.646C391.165 177.298 389.972 175.141 388.081 174.128C294.772 124.129 154.474 135.828 103.639 230.066H103.632C90.5474 253.931 83 282.02 83 312.085C83 312.085 83 312.499 83 312.638C82.9968 341.503 91.3546 363.608 91.3546 363.608C94.5993 353.587 98.7252 344.043 103.636 335.094H103.642C140.562 266.652 224.678 241.746 303.708 252.397L303.689 252.541C307.207 253.02 310.323 250.01 310.323 246.039V245.791C310.323 242.505 308.159 239.685 305.249 239.27C277.365 235.289 248.966 236.189 221.169 242.064" stroke="black" stroke-width="5" stroke-miterlimit="10"/>
<path d="M123.865 201.516C124.412 257.651 130.573 286.947 142.346 289.41L123.865 201.516Z" fill="white"/>
<path d="M123.865 201.516C124.412 257.651 130.573 286.947 142.346 289.41" stroke="black" stroke-width="5" stroke-miterlimit="10"/>
<path d="M110.901 218.046C111.447 274.18 117.609 299.916 129.382 302.379L110.901 218.046Z" fill="white"/>
<path d="M110.901 218.046C111.447 274.18 117.609 299.916 129.382 302.379" stroke="black" stroke-width="5" stroke-miterlimit="10"/>
<path d="M96.511 244.759C97.0577 300.893 102.901 314.622 114.674 317.085L96.511 244.759Z" fill="white"/>
<path d="M96.511 244.759C97.0577 300.893 102.901 314.622 114.674 317.085" stroke="black" stroke-width="5" stroke-miterlimit="10"/>
<path d="M171.221 227.725C178.867 227.725 185.065 221.527 185.065 213.881C185.065 206.236 178.867 200.037 171.221 200.037C163.575 200.037 157.377 206.236 157.377 213.881C157.377 221.527 163.575 227.725 171.221 227.725Z" fill="white" stroke="black" stroke-width="5" stroke-miterlimit="10"/>
<path d="M229.518 314.017C283.807 302.543 340.379 310.043 390.966 335.827C394.581 337.669 398.681 334.727 398.681 330.28C398.681 327.932 397.488 325.774 395.597 324.761C343.845 297.032 285.469 288.706 229.518 300.53" fill="white"/>
<path d="M229.518 314.017C283.807 302.543 340.379 310.043 390.966 335.827C394.581 337.669 398.681 334.727 398.681 330.28C398.681 327.932 397.488 325.774 395.597 324.761C343.845 297.032 285.469 288.706 229.518 300.53" stroke="black" stroke-width="5" stroke-miterlimit="10"/>
<path d="M229.518 336.978C283.807 325.504 340.379 333.003 390.966 358.787C394.581 360.63 398.681 357.687 398.681 353.24C398.681 350.892 397.488 348.735 395.597 347.722C343.845 319.992 285.469 311.666 229.518 323.491" fill="white"/>
<path d="M229.518 336.978C283.807 325.504 340.379 333.003 390.966 358.787C394.581 360.63 398.681 357.687 398.681 353.24C398.681 350.892 397.488 348.735 395.597 347.722C343.845 319.992 285.469 311.666 229.518 323.491" stroke="black" stroke-width="5" stroke-miterlimit="10"/>
<path d="M229.518 359.939C283.807 348.465 340.379 355.964 390.966 381.748C394.581 383.591 398.681 380.649 398.681 376.201C398.681 373.854 397.488 371.696 395.597 370.683C343.845 342.953 285.469 334.628 229.518 346.452" fill="white"/>
<path d="M229.518 359.939C283.807 348.465 340.379 355.964 390.966 381.748C394.581 383.591 398.681 380.649 398.681 376.201C398.681 373.854 397.488 371.696 395.597 370.683C343.845 342.953 285.469 334.628 229.518 346.452" stroke="black" stroke-width="5" stroke-miterlimit="10"/>
<path d="M229.576 290.722C256.202 285.419 284.421 284.149 312.038 287.87C315.556 288.349 318.672 285.339 318.672 281.368V281.12C318.672 277.833 316.508 275.013 313.598 274.598L313.553 274.56C234.091 263.391 149.146 288.179 111.994 357.054H111.988C98.8994 380.915 91.3552 409.008 91.3552 439.073C91.3552 439.073 91.3552 439.487 91.3552 439.626C91.352 468.491 99.7098 490.596 99.7098 490.596C102.955 480.575 107.08 471.031 111.991 462.081H111.997C136.016 417.559 180.008 391.457 229.579 381.584C256.206 376.281 285.672 376.005 313.286 379.725L324.644 381.581C347.399 385.906 369.713 393.515 390.966 404.349C394.581 406.191 398.681 403.249 398.681 398.801C398.681 396.454 397.488 394.296 395.597 393.283C343.845 365.553 285.469 357.228 229.518 369.052" fill="white"/>
<path d="M229.576 290.722C256.202 285.419 284.421 284.149 312.038 287.87C315.556 288.349 318.672 285.339 318.672 281.368V281.12C318.672 277.833 316.508 275.013 313.598 274.598L313.553 274.56C234.091 263.391 149.146 288.179 111.994 357.054H111.988C98.8994 380.915 91.3552 409.008 91.3552 439.073C91.3552 439.073 91.3552 439.487 91.3552 439.626C91.352 468.491 99.7098 490.596 99.7098 490.596C102.955 480.575 107.08 471.031 111.991 462.081H111.997C136.016 417.559 180.008 391.457 229.579 381.584C256.206 376.281 285.672 376.005 313.286 379.725L324.644 381.581C347.399 385.906 369.713 393.515 390.966 404.349C394.581 406.191 398.681 403.249 398.681 398.801C398.681 396.454 397.488 394.296 395.597 393.283C343.845 365.553 285.469 357.228 229.518 369.052" stroke="black" stroke-width="5" stroke-miterlimit="10"/>
<path d="M132.22 328.865C132.767 385 138.928 414.295 150.701 416.759L132.22 328.865Z" fill="white"/>
<path d="M132.22 328.865C132.767 385 138.928 414.295 150.701 416.759" stroke="black" stroke-width="5" stroke-miterlimit="10"/>
<path d="M119.252 345.391C119.799 401.525 125.96 427.261 137.733 429.724L119.252 345.391Z" fill="white"/>
<path d="M119.252 345.391C119.799 401.525 125.96 427.261 137.733 429.724" stroke="black" stroke-width="5" stroke-miterlimit="10"/>
<path d="M104.864 372.107C105.41 428.242 111.253 441.97 123.026 444.433L104.864 372.107Z" fill="white"/>
<path d="M104.864 372.107C105.41 428.242 111.253 441.97 123.026 444.433" stroke="black" stroke-width="5" stroke-miterlimit="10"/>
<path d="M179.576 354.713C187.222 354.713 193.42 348.515 193.42 340.869C193.42 333.223 187.222 327.025 179.576 327.025C171.93 327.025 165.732 333.223 165.732 340.869C165.732 348.515 171.93 354.713 179.576 354.713Z" fill="white" stroke="black" stroke-width="5" stroke-miterlimit="10"/>
<path d="M531.054 227.725C538.7 227.725 544.898 221.527 544.898 213.881C544.898 206.236 538.7 200.037 531.054 200.037C523.409 200.037 517.21 206.236 517.21 213.881C517.21 221.527 523.409 227.725 531.054 227.725Z" fill="white" stroke="black" stroke-width="5" stroke-miterlimit="10"/>
<path d="M539.406 354.713C547.052 354.713 553.25 348.515 553.25 340.869C553.25 333.223 547.052 327.025 539.406 327.025C531.761 327.025 525.562 333.223 525.562 340.869C525.562 348.515 531.761 354.713 539.406 354.713Z" fill="white" stroke="black" stroke-width="5" stroke-miterlimit="10"/>
</svg>
